<?xml version="1.0" standalone="no"?>
<!DOCTYPE svg PUBLIC "-//W3C//DTD SVG 20010904//EN"
 "http://www.w3.org/TR/2001/REC-SVG-20010904/DTD/svg10.dtd">
<svg version="1.0" xmlns="http://www.w3.org/2000/svg"
 width="300.000000pt" height="300.000000pt" viewBox="0 0 300.000000 300.000000"
 preserveAspectRatio="xMidYMid meet">
<metadata>
Created by potrace 1.10, written by Peter Selinger 2001-2011
</metadata>
<g transform="translate(0.000000,300.000000) scale(0.100000,-0.100000)"
fill="#999999" stroke="none">
<path d="M1345 2955 c-207 -24 -327 -60 -509 -154 -130 -67 -140 -73 -164 -94
-10 -10 -22 -17 -26 -17 -15 0 -191 -157 -237 -213 -62 -74 -128 -162 -151
-202 -92 -158 -156 -320 -190 -482 -29 -143 -31 -427 -3 -573 49 -260 188
-545 340 -695 64 -64 191 -165 290 -231 72 -48 205 -118 211 -111 3 2 -23 27
-58 55 -338 271 -557 723 -558 1151 0 178 29 316 100 467 40 87 98 173 116
174 14 0 194 -239 194 -259 0 -4 9 -16 20 -26 11 -10 20 -22 20 -28 0 -5 8
-21 19 -35 10 -15 28 -43 39 -62 11 -19 43 -75 72 -125 158 -270 296 -601 325
-780 19 -120 3 -174 -60 -201 l-30 -13 35 -1 c52 0 145 26 197 57 100 58 153
187 153 370 0 55 -4 124 -9 154 -5 30 -15 86 -21 124 -17 101 -48 260 -65 330
-109 458 -142 708 -124 950 12 180 57 293 163 411 31 34 56 65 56 68 0 7 -8 7
-145 -9z"/>
<path d="M2121 2804 c97 -80 257 -254 320 -350 195 -291 294 -650 260 -941
-22 -190 -69 -329 -153 -455 -47 -70 -54 -75 -80 -51 -29 26 -188 244 -188
259 0 3 -11 20 -24 37 -71 96 -263 451 -344 634 -32 75 -91 253 -111 336 -27
117 -6 196 61 228 l43 20 -60 -6 c-181 -17 -281 -96 -324 -255 -14 -52 -9
-329 7 -420 6 -30 15 -82 21 -115 5 -33 21 -112 35 -175 138 -631 140 -645
141 -890 0 -159 -3 -208 -18 -265 -29 -107 -83 -209 -149 -278 l-58 -62 29 -3
c41 -4 264 25 331 44 103 29 205 68 295 114 81 41 109 58 195 117 179 123 376
358 461 550 17 38 36 82 44 98 7 17 25 68 39 115 79 267 76 610 -10 868 -28
84 -120 281 -156 334 -155 225 -359 408 -575 517 -81 40 -86 39 -32 -5z"/>
</g>
</svg>
