<?xml version="1.0" standalone="no"?>
<!DOCTYPE svg PUBLIC "-//W3C//DTD SVG 20010904//EN"
 "http://www.w3.org/TR/2001/REC-SVG-20010904/DTD/svg10.dtd">
<svg version="1.0" xmlns="http://www.w3.org/2000/svg"
 width="729.000000pt" height="723.000000pt" viewBox="0 0 729.000000 723.000000"
 preserveAspectRatio="xMidYMid meet">
<metadata>
Created by potrace 1.10, written by Peter Selinger 2001-2011
</metadata>
<g transform="translate(0.000000,723.000000) scale(0.100000,-0.100000)"
fill="#999999" stroke="none">
<path d="M0 3615 l0 -3615 3645 0 3645 0 0 3615 0 3615 -3645 0 -3645 0 0
-3615z m1864 2354 c104 -19 222 -76 290 -140 118 -111 176 -246 176 -411 0
-189 -86 -350 -240 -453 -86 -57 -146 -80 -259 -101 -95 -18 -168 -14 -296 14
-229 50 -425 301 -425 542 0 75 30 193 68 265 76 144 220 248 392 280 85 16
218 18 294 4z m3251 -1489 c190 -31 253 -50 385 -113 105 -51 178 -105 285
-212 131 -131 200 -235 279 -420 29 -67 65 -202 93 -345 17 -88 18 -169 18
-1170 l0 -1075 -534 -3 c-421 -2 -536 0 -543 10 -4 7 -8 427 -8 933 0 527 -5
952 -10 994 -23 178 -76 312 -157 398 -48 51 -140 113 -169 113 -8 0 -29 7
-45 16 -24 12 -63 16 -163 16 -143 0 -156 -4 -324 -91 -47 -24 -176 -164 -204
-221 -69 -140 -62 -28 -68 -1150 -3 -558 -6 -1016 -8 -1017 -1 -2 -243 -3
-537 -3 -503 0 -535 1 -536 18 -4 67 3 3248 7 3252 3 2 238 4 523 5 425 0 521
-2 534 -14 15 -12 17 -40 17 -212 0 -217 4 -230 50 -162 44 65 223 238 295
284 155 101 248 135 465 172 45 8 304 6 355 -3z m-2865 -76 c7 -7 9 -533 8
-1635 l-3 -1624 -529 -3 c-417 -2 -531 0 -538 10 -4 7 -8 738 -8 1625 0 1340
2 1614 14 1625 11 11 108 13 529 13 339 0 520 -4 527 -11z"/>
</g>
</svg>
