 <svg  version="1.0" xmlns="http://www.w3.org/2000/svg"  width="300.000000pt" height="300.000000pt" viewBox="0 0 300.000000 300.000000"  preserveAspectRatio="xMidYMid meet">  <g transform="translate(0.000000,300.000000) scale(0.100000,-0.100000)" fill="#ffffff" stroke="none"> <path d="M1289 2985 c-340 -55 -603 -189 -839 -425 -277 -276 -421 -604 -437 -991 -14 -356 86 -685 291 -956 74 -98 246 -276 210 -218 -10 17 -24 33 -31 38 -46 29 -51 84 -12 139 10 15 19 34 19 41 0 8 18 51 40 94 29 59 58 97 107 145 38 35 90 90 117 122 54 64 104 94 130 79 14 -7 7 -19 -42 -74 -168 -192 -201 -233 -225 -284 -29 -57 -45 -125 -39 -161 3 -20 12 -23 95 -30 51 -5 103 -8 117 -8 32 2 154 22 174 30 12 4 21 -7 36 -41 19 -44 22 -47 48 -40 15 4 45 11 67 14 23 4 46 11 53 15 23 14 12 -20 -14 -43 -36 -31 -23 -38 18 -10 65 46 88 71 82 93 -3 13 5 34 20 55 43 58 49 92 32 162 -9 34 -22 75 -30 93 -23 51 -29 70 -27 80 1 4 -5 31 -13 60 -17 56 -41 93 -110 166 -25 27 -46 53 -46 58 0 25 96 100 378 297 l84 58 -7 -44 c-5 -39 -3 -48 24 -80 23 -27 41 -38 72 -43 23 -4 45 -9 50 -11 4 -3 -15 -28 -41 -56 -26 -28 -54 -63 -61 -77 -8 -15 -22 -35 -32 -44 -24 -22 -77 -110 -116 -195 -18 -37 -37 -76 -42 -86 -20 -37 -3 -25 31 21 39 53 124 102 175 102 26 0 36 7 58 43 49 78 110 132 174 155 69 25 88 43 97 92 14 68 10 117 -13 145 -31 41 -99 73 -149 71 -46 -1 -53 11 -22 39 11 10 20 26 20 35 0 9 3 20 7 24 4 4 8 13 8 19 2 36 23 77 59 118 128 144 194 361 168 545 -7 45 -19 102 -28 126 -16 46 -16 45 26 180 22 69 15 111 -19 116 -41 6 -69 -7 -90 -44 l-22 -36 -60 65 c-61 67 -162 141 -234 172 -22 9 -78 26 -125 36 l-85 19 175 -4 c236 -6 376 -38 579 -133 350 -162 640 -488 760 -855 103 -311 89 -713 -33 -991 -22 -50 -23 -51 -35 -29 -10 18 -10 27 -1 38 7 7 16 11 20 9 5 -3 5 9 -1 27 -5 18 -9 34 -9 35 0 2 10 3 21 3 18 0 20 4 15 27 -4 16 -8 39 -10 53 -5 43 -34 129 -57 170 -24 43 -104 114 -92 83 4 -10 10 -20 14 -23 4 -3 16 -30 27 -60 11 -30 27 -75 37 -100 28 -76 6 -162 -55 -214 -46 -38 -303 -161 -400 -191 -239 -73 -249 -76 -278 -102 -7 -7 -25 -16 -40 -19 -15 -3 -54 -14 -87 -24 -33 -10 -71 -21 -84 -25 l-24 -7 21 33 c11 19 26 56 33 82 32 127 -61 268 -193 292 l-37 7 -35 -73 c-52 -110 -57 -126 -57 -186 -1 -99 76 -157 205 -153 45 1 48 0 36 -15 -49 -59 -187 -78 -265 -38 -56 30 -102 81 -125 139 -22 56 -26 51 -8 -10 10 -38 90 -156 110 -164 5 -2 14 -9 21 -16 6 -7 37 -24 67 -38 72 -34 214 -44 310 -22 36 8 98 19 139 25 68 9 131 33 131 50 0 4 11 9 23 13 13 3 41 19 62 36 21 16 43 30 49 30 6 1 29 9 51 20 22 11 47 20 55 20 8 0 26 7 40 16 24 14 24 14 -15 8 -22 -4 -50 -11 -62 -15 -23 -9 -29 -2 -15 16 10 14 79 45 99 45 12 0 13 3 4 14 -19 23 26 42 114 50 l80 8 -50 -36 c-27 -20 -47 -36 -43 -36 27 0 132 49 176 82 30 22 55 38 57 36 2 -2 -18 -38 -43 -80 -197 -323 -516 -560 -882 -654 -93 -24 -115 -26 -224 -21 -140 6 -236 30 -341 85 -80 42 -190 142 -237 213 -36 56 -58 61 -126 29 -22 -11 -48 -20 -56 -20 -8 0 -18 -5 -22 -12 -5 -7 -2 -9 8 -5 60 22 98 28 137 20 23 -4 43 -12 44 -18 2 -22 -129 -46 -280 -52 -147 -5 -152 -5 -185 18 -19 14 -28 16 -20 7 24 -29 184 -134 277 -181 115 -57 240 -101 368 -129 137 -30 445 -32 580 -5 735 149 1248 799 1214 1537 -33 697 -528 1269 -1217 1405 -117 23 -380 29 -491 10z m-257 -170 c5 -8 29 -10 73 -7 43 3 65 0 65 -7 0 -6 14 -11 30 -11 24 0 42 -11 78 -48 26 -26 55 -61 64 -78 22 -39 18 -132 -7 -150 -9 -7 -14 -17 -11 -22 3 -5 -16 -12 -43 -16 -31 -4 -68 -19 -97 -39 -49 -33 -98 -92 -91 -111 8 -21 62 -7 88 22 24 27 28 28 52 15 23 -12 29 -11 47 4 11 10 30 37 41 60 12 25 28 43 37 43 33 -1 98 -38 131 -75 46 -53 61 -94 61 -165 0 -145 -112 -249 -258 -238 -53 4 -58 2 -59 -17 0 -11 4 -32 9 -48 7 -18 7 -31 0 -40 -6 -6 -10 -15 -10 -20 -1 -52 -21 -76 -70 -83 -29 -4 -85 -66 -102 -113 -7 -20 -24 -49 -38 -64 -23 -24 -27 -38 -29 -100 -2 -73 -6 -97 -24 -130 -7 -13 -6 -23 2 -33 6 -7 9 -21 5 -29 -3 -10 4 -25 20 -40 49 -46 60 -43 130 29 78 80 85 74 11 -9 -50 -56 -147 -207 -147 -230 0 -5 -4 -16 -9 -24 -7 -11 -16 -10 -47 10 -22 12 -43 29 -47 36 -4 7 -16 13 -27 13 -32 0 -50 11 -66 41 -8 16 -14 32 -13 35 0 4 -4 10 -10 14 -20 12 -32 136 -18 185 3 11 6 20 7 20 1 0 3 16 5 35 10 82 16 99 30 93 11 -4 13 -1 9 11 -3 9 -1 16 6 16 6 0 9 4 6 8 -3 5 1 32 9 60 7 29 10 52 7 52 -10 0 -92 -90 -92 -101 0 -5 -4 -9 -10 -9 -5 0 -26 -16 -46 -35 -42 -41 -61 -40 -109 5 -16 16 -49 33 -73 40 -76 20 -83 78 -28 232 27 75 61 132 124 203 40 45 41 46 31 16 -13 -38 -8 -47 19 -30 16 10 23 10 35 0 12 -10 20 -10 36 1 12 7 21 16 21 20 0 6 27 21 141 79 20 10 47 19 60 21 13 2 34 9 46 16 12 7 37 12 55 12 28 0 39 -7 68 -47 34 -47 102 -94 115 -81 4 4 0 19 -9 35 -8 15 -18 35 -22 44 -3 9 -30 24 -60 34 -42 13 -55 22 -60 42 -9 35 -9 93 -1 125 6 24 4 28 -18 34 -15 4 -32 1 -40 -6 -13 -11 -14 -8 -9 19 6 30 5 31 -29 31 -22 0 -37 6 -41 15 -4 12 -10 14 -25 5 -26 -14 -32 -3 -32 67 -1 43 -7 66 -27 97 -14 23 -25 50 -24 61 0 10 -4 25 -9 31 -7 8 -7 19 -1 31 6 10 10 23 10 28 1 24 26 84 34 79 4 -3 11 2 14 10 4 11 15 14 35 11 16 -3 29 -1 29 4 0 13 51 29 70 23 8 -3 18 -11 22 -17z m843 -182 c11 -15 7 -24 -26 -63 -44 -52 -138 -231 -164 -312 -10 -29 -28 -77 -41 -106 -51 -112 -72 -169 -80 -206 l-7 -40 32 35 c22 23 34 30 38 21 4 -10 8 -10 19 -1 11 9 14 8 14 -3 0 -24 -84 -125 -88 -106 -2 9 8 28 22 43 15 16 26 33 26 39 -1 17 -60 -56 -60 -74 1 -41 45 -58 91 -35 22 12 34 14 42 6 7 -7 14 -7 23 0 29 24 63 -10 64 -62 0 -13 -117 -107 -178 -143 -16 -9 -16 -10 23 54 12 19 25 49 29 65 l8 30 -26 -24 c-19 -18 -33 -22 -63 -19 -21 3 -45 8 -54 12 -12 5 -18 -3 -28 -34 -8 -28 -35 -64 -88 -118 -42 -42 -68 -67 -58 -54 10 12 14 22 10 22 -5 0 2 12 16 28 17 19 13 17 -12 -6 -20 -19 -39 -30 -42 -25 -5 8 35 61 118 157 14 16 25 36 25 46 0 10 6 23 14 29 8 7 18 38 21 69 11 91 24 144 49 197 14 28 43 95 66 150 23 55 59 132 80 170 20 39 41 81 45 95 7 22 114 178 124 179 2 1 9 -7 16 -16z m45 -12 c0 -6 -4 -13 -10 -16 -5 -3 -10 1 -10 9 0 9 5 16 10 16 6 0 10 -4 10 -9z m15 -108 c17 -44 17 -49 2 -76 -10 -16 -17 -39 -17 -52 0 -38 -17 -72 -73 -151 -28 -41 -68 -98 -87 -129 -36 -58 -46 -66 -52 -38 -2 13 -7 10 -22 -13 -10 -16 -13 -23 -5 -16 7 6 17 12 21 12 16 0 7 -27 -16 -49 l-25 -23 6 23 c6 21 4 22 -9 11 -23 -18 -31 1 -10 24 9 10 23 30 30 44 7 14 27 48 45 77 18 29 51 83 73 120 24 38 56 115 75 176 19 59 37 107 40 107 3 0 14 -21 24 -47z m-1077 -189 c-7 -15 -19 -29 -26 -32 -7 -2 -2 12 10 31 27 40 36 41 16 1z m-84 -99 c-4 -8 -11 -15 -16 -15 -6 0 -5 6 2 15 7 8 14 15 16 15 2 0 1 -7 -2 -15z m186 11 c0 -3 -5 -8 -12 -12 -7 -4 -8 -3 -4 4 7 12 16 16 16 8z m-239 -79 c-10 -9 -11 -8 -5 6 3 10 9 15 12 12 3 -3 0 -11 -7 -18z m-21 -31 c0 -3 -5 -8 -12 -12 -7 -4 -8 -3 -4 4 7 12 16 16 16 8z m598 -603 c-2 -10 2 -17 8 -16 18 4 5 -32 -17 -45 -14 -9 -19 -9 -19 -1 0 7 -8 5 -19 -5 -10 -10 -22 -13 -25 -8 -8 13 52 91 72 92 2 0 2 -8 0 -17z m-188 -217 c0 -2 -7 -9 -15 -16 -12 -10 -15 -10 -15 4 0 9 7 16 15 16 8 0 15 -2 15 -4z m-66 -366 c61 -75 110 -216 85 -246 -6 -7 -8 -17 -5 -22 7 -12 -122 -134 -137 -129 -41 13 -58 316 -23 416 l19 55 21 -26 c12 -14 29 -36 40 -48z m1423 -157 c-4 -3 -10 -3 -14 0 -3 4 0 7 7 7 7 0 10 -3 7 -7z"/> <path d="M1472 1747 c-16 -37 -15 -41 4 -23 8 9 14 24 11 34 -3 13 -6 11 -15 -11z"/> <path d="M1916 2485 c-9 -26 -7 -32 5 -12 6 10 9 21 6 23 -2 3 -7 -2 -11 -11z"/> <path d="M1897 2443 c-4 -3 -7 -16 -6 -27 0 -19 1 -19 10 3 10 24 8 36 -4 24z"/> <path d="M1775 2194 c-9 -15 -12 -23 -6 -20 11 7 35 46 28 46 -3 0 -12 -12 -22 -26z"/> <path d="M1736 2131 c-13 -25 -14 -29 -2 -25 8 3 17 15 20 27 8 33 -1 32 -18 -2z"/> <path d="M2562 2073 c-17 -8 -32 -19 -32 -24 0 -4 -20 -20 -45 -35 -30 -17 -45 -33 -45 -47 0 -18 2 -19 18 -5 28 25 61 32 68 14 4 -10 -10 -33 -36 -63 -23 -27 -43 -47 -45 -46 -2 1 -23 -16 -47 -38 -24 -22 -60 -50 -80 -61 -21 -12 -38 -28 -38 -36 0 -12 4 -12 23 2 12 9 28 19 36 23 8 4 24 16 35 27 13 13 21 16 24 8 2 -7 11 -12 19 -12 9 0 21 -8 28 -17 11 -15 17 -15 52 -4 35 12 44 11 86 -9 35 -16 56 -20 85 -15 35 6 48 15 104 73 17 18 34 68 30 89 -1 6 2 14 6 17 19 11 -5 88 -34 112 -66 54 -156 74 -212 47z"/> <path d="M2505 1680 c3 -5 8 -10 11 -10 3 0 2 5 -1 10 -3 6 -8 10 -11 10 -3 0 -2 -4 1 -10z"/> <path d="M2625 1540 c3 -5 8 -10 11 -10 2 0 4 5 4 10 0 6 -5 10 -11 10 -5 0 -7 -4 -4 -10z"/> <path d="M2775 1370 c3 -5 8 -10 11 -10 3 0 2 5 -1 10 -3 6 -8 10 -11 10 -3 0 -2 -4 1 -10z"/> <path d="M2862 1216 c13 -19 24 -33 26 -31 6 6 -28 65 -38 65 -6 0 0 -15 12 -34z"/> </g> </svg> 