<?xml version="1.0" standalone="no"?>
<!DOCTYPE svg PUBLIC "-//W3C//DTD SVG 20010904//EN"
 "http://www.w3.org/TR/2001/REC-SVG-20010904/DTD/svg10.dtd">
<svg version="1.0" xmlns="http://www.w3.org/2000/svg"
 width="300.000000pt" height="39.000000pt" viewBox="0 0 300.000000 39.000000"
 preserveAspectRatio="xMidYMid meet">
<metadata>
Created by potrace 1.10, written by Peter Selinger 2001-2011
</metadata>
<g transform="translate(0.000000,39.000000) scale(0.100000,-0.100000)"
fill="#000000" stroke="none">
<path d="M175 374 c-95 -33 -165 -129 -165 -224 0 -43 5 -56 28 -80 46 -46
142 -62 250 -41 37 7 78 38 66 50 -2 2 -41 7 -87 11 -102 10 -160 27 -192 56
-73 67 28 191 138 170 37 -7 45 -13 71 -50 12 -18 14 -16 24 29 15 72 3 95
-50 94 -24 0 -61 -7 -83 -15z"/>
<path d="M1738 343 c-45 -48 -59 -68 -78 -117 -16 -43 4 -29 48 34 37 52 47
60 75 60 39 0 77 -10 77 -19 0 -4 -33 -42 -73 -84 -66 -69 -78 -77 -111 -77
-20 0 -50 7 -65 14 -25 13 -31 13 -50 0 -27 -19 -27 -35 2 -62 36 -34 92 -52
160 -52 80 0 151 21 213 63 64 42 94 88 94 143 0 37 -5 47 -41 78 -46 39 -114
66 -169 66 -30 0 -44 -8 -82 -47z m198 -89 c66 -69 38 -131 -68 -154 -52 -11
-134 -5 -143 10 -3 5 12 22 33 38 20 17 55 55 77 86 22 30 46 55 54 56 7 0 29
-16 47 -36z"/>
<path d="M620 371 c-24 -7 -25 -10 -28 -101 -2 -52 0 -105 3 -117 7 -30 42
-39 66 -17 18 16 18 19 3 35 -14 16 -15 33 -9 114 4 52 3 95 -2 94 -4 -1 -19
-4 -33 -8z"/>
<path d="M1460 371 c-24 -7 -25 -10 -28 -109 -2 -59 2 -110 8 -122 14 -26 42
-26 65 0 17 19 17 20 0 26 -16 7 -17 17 -12 111 4 56 3 103 -1 102 -4 -1 -18
-4 -32 -8z"/>
<path d="M724 303 c-3 -10 -10 -26 -15 -35 -6 -12 -6 -18 1 -18 6 0 7 -18 4
-44 -5 -36 -3 -47 15 -65 27 -27 46 -27 65 1 14 20 14 23 1 31 -23 13 -20 73
5 80 11 3 20 12 20 21 0 9 -8 16 -20 16 -11 0 -20 7 -20 15 0 22 -49 20 -56
-2z"/>
<path d="M400 291 c-22 -6 -25 -13 -28 -61 -2 -30 -1 -64 2 -76 8 -31 41 -40
71 -20 23 15 25 15 25 0 0 -12 6 -15 23 -10 12 3 28 6 35 6 8 0 12 23 12 80
l0 80 -34 0 -35 0 6 -55 c5 -46 3 -56 -12 -61 -26 -10 -36 15 -30 74 4 28 3
52 -2 51 -4 -1 -19 -4 -33 -8z"/>
<path d="M880 291 c-23 -6 -25 -12 -28 -79 -3 -68 -2 -73 22 -83 20 -10 30 -9
51 5 23 15 25 15 25 0 0 -12 6 -15 23 -10 12 3 28 6 35 6 8 0 12 23 12 80 l0
80 -35 0 c-36 0 -36 0 -29 -35 8 -44 -2 -85 -21 -85 -20 0 -28 35 -20 86 3 24
3 44 -2 43 -4 -1 -19 -4 -33 -8z"/>
<path d="M1153 288 c-6 -7 -13 -20 -16 -28 -4 -10 -6 -7 -6 8 -1 17 -7 22 -30
22 -26 0 -29 -4 -34 -45 -12 -82 12 -125 68 -125 23 0 31 49 10 64 -24 17 -5
57 24 49 14 -3 20 2 25 22 4 14 4 30 1 35 -9 14 -31 12 -42 -2z"/>
<path d="M2158 288 c-9 -7 -18 -20 -21 -28 -4 -10 -6 -7 -6 8 -1 18 -7 22 -31
22 l-30 0 0 -69 c0 -61 3 -72 22 -85 32 -22 53 -20 66 8 8 19 7 26 -9 40 -16
13 -17 20 -9 36 12 23 21 25 37 9 8 -8 13 -3 18 20 10 47 -6 63 -37 39z"/>
<path d="M2255 278 c-29 -23 -43 -69 -35 -118 7 -45 33 -51 71 -14 l29 28 0
-27 c0 -28 8 -31 48 -21 19 6 22 13 22 63 0 69 -12 87 -68 100 -36 7 -46 6
-67 -11z m61 -49 c3 -6 -3 -21 -15 -32 l-21 -21 0 32 c0 32 21 45 36 21z"/>
<path d="M2916 285 c-14 -11 -22 -12 -27 -4 -4 7 -19 8 -38 4 l-31 -7 0 -80
c0 -78 1 -80 23 -74 12 3 28 6 35 6 8 0 12 19 12 59 0 59 11 83 26 59 5 -7 7
-39 7 -70 -2 -62 3 -68 36 -40 16 12 24 32 28 73 5 51 3 58 -18 73 -28 19 -29
19 -53 1z"/>
<path d="M1248 273 c-31 -36 -39 -63 -32 -108 5 -38 10 -45 29 -45 15 0 33 13
49 32 l26 33 0 -32 c0 -34 7 -38 48 -27 19 6 22 13 22 61 0 44 -5 58 -25 78
-30 31 -94 34 -117 8z m66 -42 c3 -5 -3 -20 -14 -32 l-19 -24 -1 33 c0 31 21
45 34 23z"/>
<path d="M2452 268 c-43 -46 -49 -118 -12 -138 13 -7 23 -3 40 15 33 35 40 31
40 -21 0 -45 -1 -46 -27 -40 -50 12 -55 11 -67 -6 -26 -41 51 -85 97 -55 39
25 57 76 57 160 0 67 -3 78 -22 91 -33 23 -81 20 -106 -6z m57 -27 c12 -8 11
-15 -7 -43 l-22 -33 0 43 c0 43 5 48 29 33z"/>
<path d="M2662 274 c-32 -22 -54 -69 -46 -100 5 -18 19 -32 47 -44 39 -18 42
-18 77 0 33 17 60 54 60 81 0 6 -7 26 -16 45 -15 31 -20 34 -58 34 -23 0 -52
-7 -64 -16z m68 -49 c9 -25 3 -65 -10 -65 -28 0 -54 73 -34 93 11 10 35 -5 44
-28z"/>
</g>
</svg>
